# xmcd
# 
# Track frame offsets:
#     150
#     16682
#     41815
#     61092
# 
# Disc length: 1022
# 
# Revision: 0
# Processed by: cddbd v1.5.2PL0 Copyright (c) Steve Scherf et al.
# Submitted via: fre:ac v1.0.17
# 
DISCID=2603fc04
DTITLE=Solid Base - I like it
DYEAR=2001
DGENRE=
TTITLE0=I like it (Airplay Edit)
TTITLE1=I like it (Extended Mix)
TTITLE2=I like it (Tony Loco Mix)
TTITLE3=This is How we do it (Airplay Edit)
EXTD=
EXTT0=
EXTT1=
EXTT2=
EXTT3=
PLAYORDER=
